<?xml version="1.0" standalone="no"?>
<!DOCTYPE svg PUBLIC "-//W3C//DTD SVG 20010904//EN"
 "http://www.w3.org/TR/2001/REC-SVG-20010904/DTD/svg10.dtd">
<svg version="1.0" xmlns="http://www.w3.org/2000/svg"
 width="640.000000pt" height="360.000000pt" viewBox="0 0 640.000000 360.000000"
 preserveAspectRatio="xMidYMid meet">

<g transform="translate(0.000000,360.000000) scale(0.100000,-0.100000)"
fill="#000000" stroke="none">
<path d="M0 1800 l0 -1800 3200 0 3200 0 0 1800 0 1800 -3200 0 -3200 0 0
-1800z m3545 800 l0 -105 -332 -3 -333 -2 0 -210 0 -210 193 -2 192 -3 0 -105
0 -105 -299 -3 -300 -2 107 -109 107 -108 -2 -209 -3 -209 -230 0 -230 0 0 85
0 85 70 5 70 5 0 545 0 545 -70 5 -70 5 -3 94 c-1 52 0 100 2 108 5 11 107 13
568 11 l563 -3 0 -105z m433 -222 c13 -13 17 -163 6 -192 -5 -14 -59 -16 -500
-16 -272 0 -494 4 -494 8 0 5 47 54 104 110 l103 102 385 0 c285 0 387 -3 396
-12z m-210 -642 c15 -8 70 -58 122 -110 l95 -96 0 -215 0 -214 -110 -105 -110
-105 -388 -1 -388 0 3 108 3 107 333 3 332 2 0 100 0 100 101 110 101 110
-334 0 -333 0 -103 103 c-56 56 -102 106 -102 110 0 4 169 7 375 7 307 0 381
-3 403 -14z"/>
</g>
</svg>
